Patient4_TMGait_0pt2_03_left_19_GRF.mot
version=1
nRows=26
nColumns=19
inDegrees=no
endheader
time	F1x	F1y	F1z	M1x	M1y	M1z	F2x	F2y	F2z	M2x	M2y	M2z	EC1x	EC1y	EC1z	EC2x	EC2y	EC2z
39.66	-2.7714	31.4321	4.3539	-9.6594	-5.2591	31.7298	-17.0359	751.4883	-46.3554	260.6006	58.6635	786.5278	-0.0592	0.0182	-0.0073	-0.0462	0.0165	0.9585
39.6819	-2.9985	25.4051	3.9033	-7.8543	-4.8479	25.5501	-20.2566	782.3309	-46.8161	270.5571	59.8325	818.2527	-0.0592	0.0182	-0.0073	-0.0462	0.0165	0.9585
39.7039	-2.9311	19.0411	3.259	-5.9336	-4.1625	19.1002	-23.415	816.2057	-47.5213	281.4529	61.132	852.7636	-0.0592	0.0182	-0.0073	-0.0462	0.0165	0.9585
39.7258	-2.5255	13.0408	2.4927	-4.11	-3.262	13.0735	-26.0505	849.2726	-48.4211	291.99	62.3479	885.9905	-0.0592	0.0182	-0.0073	-0.0462	0.0165	0.9585
39.7477	-1.9361	8.0133	1.7425	-2.5731	-2.3299	8.0559	-27.8007	877.2212	-49.3594	300.7217	63.1958	913.4381	-0.0592	0.0182	-0.0073	-0.0462	0.0165	0.9585
39.7696	-1.333	4.2149	1.1105	-1.4063	-1.5211	4.2896	-28.4409	896.2453	-50.0995	306.3877	63.3649	931.2011	-0.0592	0.0182	-0.0073	-0.0462	0.0165	0.9585
39.7916	-0.81281	1.5968	0.63183	-0.59672	-0.89888	1.7133	-27.9007	903.8646	-50.3906	308.1876	62.5965	936.7993	-0.0592	0.0182	-0.0073	-0.0462	0.0165	0.9585
39.8135	-0.41953	-0.055535	0.30208	-0.078321	-0.46811	0.09888	-26.2627	899.3684	-50.0515	305.9211	60.767	929.6144	-0.0592	0.0182	-0.0073	-0.0462	0.0165	0.9585
39.8354	-0.16136	-1.0246	0.098465	0.2363	-0.20465	-0.84567	-23.7183	883.8593	-49.0297	299.9931	57.9334	910.9038	-0.0592	0.0182	-0.0073	-0.0462	0.0165	0.9585
39.8574	-0.020532	-1.5975	-0.0099108	0.43655	-0.07124	-1.4142	-20.5108	859.9321	-47.4311	291.2998	54.3339	883.4442	-0.0592	0.0182	-0.0073	-0.0462	0.0165	0.9585
39.8793	0.032256	-2.0311	-0.056615	0.60167	-0.024152	-1.8663	-16.8896	831.0573	-45.4947	281.0211	50.3349	850.8634	-0.0592	0.0182	-0.0073	-0.0462	0.0165	0.9585
39.9012	0.029853	-2.5254	-0.073663	0.7922	-0.017701	-2.4038	-13.0761	800.857	-43.5135	270.3821	46.3303	816.8829	-0.0592	0.0182	-0.0073	-0.0462	0.0165	0.9585
39.9231	0.0078822	-3.207	-0.088649	1.0446	-0.0092766	-3.1574	-9.2472	772.5077	-41.7443	260.4586	42.6428	784.7186	-0.0592	0.0182	-0.0073	-0.0462	0.0165	0.9585
39.9451	0.0043113	-4.1049	-0.12726	1.3656	0.040982	-4.1594	-5.5344	748.4063	-40.3541	252.0682	39.4765	756.7481	-0.0592	0.0182	-0.0073	-0.0462	0.0165	0.9585
39.967	0.058299	-5.1276	-0.20911	1.7223	0.16328	-5.3066	-2.0234	730.0521	-39.4164	245.7294	36.9225	734.4146	-0.0592	0.0182	-0.0073	-0.0462	0.0165	0.9585
39.9889	0.20684	-6.0338	-0.35082	2.0304	0.38444	-6.3296	1.2698	718.0601	-38.9231	241.6626	34.9649	718.2539	-0.0592	0.0182	-0.0073	-0.0462	0.0165	0.9585
40.0109	0.4836	-6.3934	-0.56279	2.1406	0.72729	-6.7625	4.4119	712.2205	-38.8062	239.8051	33.5003	707.9763	-0.0592	0.0182	-0.0073	-0.0462	0.0165	0.9585
40.0328	0.9169	-5.555	-0.84081	1.8273	1.1991	-5.9062	7.5102	711.5743	-38.9703	239.8326	32.3809	702.5796	-0.0592	0.0182	-0.0073	-0.0462	0.0165	0.9585
40.0547	1.5196	-2.6393	-1.1568	0.78398	1.7735	-2.8133	10.6342	714.5468	-39.3145	241.1999	31.4703	700.5269	-0.0592	0.0182	-0.0073	-0.0462	0.0165	0.9585
40.0766	2.2672	3.4245	-1.4493	-1.3617	2.3725	3.6706	13.7699	719.122	-39.7534	243.1963	30.6808	699.9451	-0.0592	0.0182	-0.0073	-0.0462	0.0165	0.9585
40.0986	3.0804	13.7756	-1.6135	-5.0052	2.851	14.7787	16.7925	723.0647	-40.2183	245.0216	29.9829	698.8408	-0.0592	0.0182	-0.0073	-0.0462	0.0165	0.9585
40.1205	3.7999	29.3897	-1.4891	-10.4841	2.9743	31.5801	19.4645	724.1753	-40.6366	245.8781	29.3859	695.3313	-0.0592	0.0182	-0.0073	-0.0462	0.0165	0.9585
40.1424	4.1523	50.7014	-0.8537	-17.944	2.3948	54.5758	21.4813	720.5815	-40.9187	245.0805	28.9087	687.8799	-0.0592	0.0182	-0.0073	-0.0462	0.0165	0.9585
40.1644	3.7311	77.1577	0.55177	-27.1796	0.67643	83.2066	22.5481	711.0549	-40.9621	242.1721	28.5616	675.5453	-0.0592	0.0182	-0.0073	-0.0462	0.0165	0.9585
40.1863	2.3546	107.0453	2.9263	-37.5759	-2.464	115.6249	22.4781	695.1557	-40.6809	236.9794	28.3372	658.0585	-0.0592	0.0182	-0.0073	-0.0462	0.0165	0.9585
40.2082	0.38972	137.7605	6.1736	-48.2254	-6.7814	148.9368	21.2996	673.214	-40.0348	229.6125	28.1961	635.7482	-0.0592	0.0182	-0.0073	-0.0462	0.0165	0.9585
